<?xml version="1.0" ?><!DOCTYPE svg  PUBLIC '-//W3C//DTD SVG 20010904//EN'  'http://www.w3.org/TR/2001/REC-SVG-20010904/DTD/svg10.dtd'><svg xmlns="http://www.w3.org/2000/svg" version="1.0" width="580.012958pt" height="351.078080pt" viewBox="0 0 580.012958 351.078080" preserveAspectRatio="xMidYMid meet">
<metadata>
Created by potrace 1.12, written by Peter Selinger 2001-2015
</metadata>
<g transform="translate(-13.049268,383.076803) scale(0.100000,-0.100000)" fill="#000000" stroke="none">
<path d="M1980 3821 c0 -5 20 -25 44 -45 52 -43 96 -127 96 -184 0 -22 -19 -93 -42 -158 -35 -101 -42 -134 -46 -219 -3 -86 -1 -108 18 -159 28 -74 82 -134 180 -199 41 -27 83 -60 93 -73 10 -12 33 -28 52 -34 19 -6 35 -17 36 -23 7 -77 6 -138 -3 -166 -22 -69 -131 -160 -194 -161 -11 0 -26 -6 -32 -12 -10 -10 -8 -16 9 -29 l22 -16 -45 -47 c-25 -25 -49 -46 -55 -46 -6 0 -34 57 -63 128 -29 70 -58 142 -66 159 -9 23 -26 39 -56 53 -24 10 -128 58 -233 106 -330 149 -1017 488 -1490 733 -89 47 -92 43 -41 -45 19 -33 45 -77 58 -98 58 -99 249 -272 413 -374 91 -56 336 -182 503 -260 87 -40 115 -57 122 -77 17 -46 13 -58 -17 -50 -41 9 -239 93 -458 193 -60 27 -139 62 -175 77 -36 15 -134 59 -218 97 -84 39 -156 68 -159 64 -7 -6 61 -115 126 -200 74 -98 264 -225 482 -322 115 -51 395 -162 476 -189 56 -18 83 -45 83 -82 0 -13 -1 -23 -3 -23 -6 0 -76 23 -252 85 -104 36 -224 77 -265 90 -41 13 -140 47 -220 75 -80 28 -153 53 -162 57 -26 8 -22 -7 14 -63 54 -82 176 -198 247 -234 79 -39 330 -104 510 -130 74 -11 139 -24 144 -29 5 -5 7 -17 4 -25 -12 -31 -257 -19 -450 22 -57 12 -90 15 -94 8 -9 -14 104 -112 167 -144 55 -27 56 -27 255 -26 156 0 213 4 261 17 80 22 116 21 136 -2 15 -18 12 -20 -71 -45 -155 -47 -204 -56 -293 -56 -48 0 -90 -4 -93 -10 -3 -5 13 -21 36 -36 117 -73 210 -72 437 5 149 51 201 59 209 34 11 -33 -101 -86 -228 -108 -40 -7 -66 -21 -58 -30 4 -3 51 -8 105 -11 101 -6 263 11 389 41 l60 14 51 -35 c58 -40 61 -58 16 -106 -16 -18 -34 -60 -50 -120 -21 -79 -25 -116 -26 -243 -1 -200 8 -286 31 -305 10 -8 29 -37 43 -63 14 -27 31 -61 39 -75 12 -24 76 -109 91 -122 3 -3 16 -20 29 -37 12 -18 29 -33 38 -33 8 0 36 -15 62 -34 63 -46 202 -110 283 -130 36 -9 104 -16 150 -16 94 0 248 18 262 31 6 5 18 9 27 9 35 0 255 126 267 153 2 4 8 7 14 7 39 0 248 306 248 363 0 9 7 44 16 78 18 72 16 290 -3 324 -7 11 -18 41 -26 66 l-15 46 217 6 c119 4 417 7 663 7 l447 0 16 -30 c13 -26 21 -30 54 -30 27 0 49 8 69 25 37 31 42 31 74 -2 52 -55 74 -147 42 -174 -26 -21 -124 -155 -124 -169 0 -10 28 -12 128 -7 157 8 245 27 321 67 66 36 160 114 149 126 -5 4 -26 2 -48 -5 -56 -17 -189 -25 -230 -14 -40 10 -68 56 -77 122 -8 60 14 69 188 81 132 8 294 32 307 45 3 3 3 5 1 5 -2 0 -58 7 -124 15 -66 8 -142 15 -169 15 -81 0 -177 21 -198 42 -24 24 -20 88 8 119 43 48 183 59 287 24 32 -11 37 -11 37 3 0 29 -105 118 -167 141 -119 44 -340 73 -392 51 -45 -18 -43 -33 7 -71 62 -46 112 -129 112 -187 0 -37 -6 -50 -34 -78 -39 -39 -74 -44 -102 -13 -24 26 -85 21 -118 -10 -23 -21 -25 -22 -691 -21 l-668 1 -28 31 c-29 30 -38 58 -20 58 5 0 24 12 41 26 34 29 16 29 235 -1 83 -12 156 -15 239 -12 128 6 164 18 100 36 -22 6 -45 11 -52 11 -26 0 -172 63 -188 81 -17 18 -15 19 44 19 44 0 94 -11 182 -40 195 -64 279 -70 385 -26 50 21 96 56 90 67 -4 5 -43 9 -88 9 -45 0 -98 5 -117 10 -19 6 -64 15 -100 20 -104 17 -229 62 -230 83 0 24 61 23 186 -5 81 -18 132 -22 284 -22 l185 -1 62 34 c67 36 182 134 171 146 -8 9 -150 -14 -203 -32 -24 -8 -104 -17 -198 -20 l-159 -6 4 24 c3 22 11 25 103 41 243 43 504 109 589 149 24 11 71 45 105 75 66 60 184 210 176 224 -3 5 -24 1 -48 -9 -103 -43 -344 -125 -547 -186 -80 -24 -196 -62 -259 -84 -63 -23 -116 -39 -118 -38 -2 2 0 18 3 36 8 39 -12 29 324 161 481 190 622 273 755 445 62 81 122 175 111 175 -4 0 -37 -15 -75 -34 -37 -19 -112 -53 -167 -77 -54 -23 -130 -55 -169 -72 -90 -38 -137 -57 -265 -105 -58 -22 -170 -68 -249 -101 -79 -34 -145 -60 -146 -59 -2 2 6 22 17 46 17 36 30 47 92 76 356 170 560 274 647 332 126 83 271 225 351 344 50 74 95 160 85 160 -2 0 -41 -20 -86 -45 -117 -63 -567 -285 -686 -338 -55 -25 -181 -84 -280 -132 -307 -149 -687 -326 -741 -346 -70 -26 -100 -52 -114 -97 -7 -20 -20 -55 -30 -77 -10 -22 -32 -70 -49 -107 -16 -38 -35 -68 -42 -68 -6 0 -33 22 -60 49 l-49 49 23 15 c19 14 20 18 7 26 -8 6 -25 11 -38 11 -37 0 -78 26 -117 74 -44 54 -81 144 -66 159 6 6 11 30 11 53 0 35 4 44 21 49 12 4 38 21 58 39 20 18 66 53 102 79 88 61 153 136 178 203 31 82 29 209 -5 306 -73 206 -72 203 -47 291 13 49 27 70 71 113 62 61 55 67 -46 38 -121 -35 -199 -92 -244 -177 -20 -37 -23 -62 -28 -202 -5 -146 -8 -164 -30 -203 -28 -50 -57 -61 -95 -36 -25 16 -28 16 -61 1 -19 -10 -40 -17 -47 -17 -7 0 -36 25 -66 55 -35 37 -78 67 -127 90 -40 19 -75 43 -78 53 -8 23 -100 92 -123 92 -10 0 -50 -29 -90 -64 -39 -35 -96 -75 -126 -89 -30 -14 -82 -50 -116 -81 -61 -56 -61 -56 -91 -41 -37 19 -64 19 -80 0 -28 -34 -68 -8 -109 70 -20 37 -21 50 -15 170 6 121 5 135 -15 180 -43 97 -125 160 -253 194 -87 23 -98 25 -98 12z m1784 -171 c-19 -71 -13 -119 31 -227 39 -95 56 -183 36 -183 -6 0 -45 14 -86 32 l-75 32 -2 76 c-5 134 -1 175 17 210 18 36 85 123 90 118 2 -2 -3 -28 -11 -58z m-1507 -69 c14 -29 17 -57 15 -146 -2 -70 -7 -114 -15 -122 -7 -6 -45 -20 -84 -31 l-73 -20 6 26 c4 15 23 70 42 122 30 81 35 108 36 183 l1 89 27 -33 c15 -18 35 -49 45 -68z m763 -288 l0 -53 -39 0 c-22 0 -46 -3 -55 -6 -13 -5 -16 3 -16 45 0 44 4 56 27 75 25 22 28 22 55 7 25 -14 28 -21 28 -68z m-726 -69 c18 -34 44 -66 66 -80 l37 -25 -28 -59 c-28 -59 -29 -59 -61 -49 -18 5 -38 16 -44 24 -6 8 -14 12 -17 8 -12 -11 -8 13 8 50 20 48 19 55 -7 59 -17 2 -35 -10 -66 -42 -49 -50 -53 -48 -73 34 -9 39 -9 50 2 57 8 5 20 7 27 4 7 -3 10 0 7 5 -5 7 95 68 115 69 3 1 18 -24 34 -55z m1467 20 c8 -8 30 -17 47 -20 28 -6 32 -11 32 -38 0 -18 -7 -54 -16 -80 l-16 -47 -27 30 c-20 24 -92 61 -117 61 -8 0 38 -85 64 -119 31 -41 25 -53 -46 -98 l-51 -33 -11 41 c-6 23 -26 73 -44 110 -18 38 -30 69 -26 69 17 0 100 94 110 124 11 34 12 34 48 24 20 -5 44 -16 53 -24z m-921 7 c0 -12 -9 -21 -27 -25 -41 -8 -118 -69 -158 -124 -35 -48 -85 -167 -85 -203 0 -14 -7 -19 -26 -19 -17 0 -24 5 -22 13 3 6 15 42 27 80 40 120 140 242 232 282 46 19 59 19 59 -4z m325 -11 c60 -34 129 -105 168 -171 27 -46 67 -151 67 -176 0 -10 -31 -13 -150 -13 l-150 0 0 195 c0 107 3 195 6 195 4 0 30 -13 59 -30z m-165 -35 c26 -31 -13 -82 -44 -56 -21 18 -20 48 2 60 23 14 28 13 42 -4z m-493 -86 c8 -8 2 -31 -23 -83 -19 -40 -42 -104 -52 -144 -15 -64 -32 -87 -46 -64 -11 18 26 160 60 228 38 77 42 82 61 63z m980 -67 c47 -91 74 -209 52 -223 -18 -11 -24 -3 -39 56 -7 28 -30 88 -51 134 -30 64 -36 87 -28 97 6 8 15 14 19 14 4 0 25 -35 47 -78z m-493 -18 c30 -30 16 -74 -24 -74 -11 0 -40 29 -40 41 0 9 36 49 44 49 3 0 12 -7 20 -16z m-722 -56 c45 -48 60 -78 39 -78 -5 0 -34 20 -65 45 -50 41 -54 48 -43 65 6 11 14 20 17 20 3 0 26 -23 52 -52z m742 -84 c8 -20 8 -102 0 -131 -7 -25 -49 -36 -68 -17 -15 14 -31 137 -21 154 10 17 82 12 89 -6z m-196 -103 c20 -1 22 -6 22 -52 l0 -51 -147 6 c-82 3 -160 5 -175 5 -25 1 -28 5 -28 34 0 17 4 37 8 44 12 19 76 22 320 14z m622 -40 l0 -48 -52 -7 c-29 -3 -106 -6 -170 -6 l-118 0 0 49 c0 30 5 51 13 54 6 3 83 6 170 6 l157 1 0 -49z m-426 -53 c3 -13 7 -54 9 -93 5 -68 4 -71 -25 -95 l-31 -26 -28 25 c-27 24 -29 30 -29 101 0 93 12 118 42 92 13 -10 18 -9 28 3 18 21 29 19 34 -7z m1590 -85 c3 -10 6 -49 8 -86 2 -51 -2 -71 -12 -77 -20 -13 -46 -12 -68 1 -13 8 -43 -1 -142 -44 -69 -30 -154 -64 -190 -76 -64 -21 -65 -23 -93 -83 -15 -34 -26 -63 -24 -65 2 -2 48 15 102 37 86 36 299 110 316 110 22 0 13 -45 -28 -145 l-46 -114 -46 -16 c-25 -8 -111 -41 -191 -74 l-145 -58 -55 -104 c-59 -110 -108 -169 -140 -169 -33 0 -31 16 10 78 37 58 100 190 100 210 0 17 69 52 220 112 80 32 154 60 166 64 20 6 64 83 64 112 0 18 -22 13 -81 -17 -20 -10 -83 -37 -140 -59 -57 -22 -126 -50 -154 -61 -27 -12 -62 -24 -77 -26 -26 -5 -25 -1 55 156 l81 160 51 11 c27 6 122 39 210 75 155 62 160 65 168 97 5 20 19 41 35 51 34 21 39 21 46 0z m-3220 -12 c9 -10 20 -31 24 -46 7 -23 25 -33 147 -81 77 -31 163 -62 190 -71 95 -29 93 -28 140 -125 24 -51 62 -122 86 -157 l41 -64 -43 6 c-24 3 -82 24 -129 46 -99 46 -301 124 -306 118 -3 -2 7 -28 20 -57 l24 -53 149 -59 c236 -94 222 -84 268 -185 22 -49 61 -116 87 -151 27 -35 48 -65 48 -66 0 -2 -12 -7 -26 -10 -20 -5 -33 -1 -52 16 -29 27 -99 132 -135 203 l-25 51 -149 61 c-81 34 -162 64 -180 68 -39 8 -40 9 -90 125 -53 122 -60 148 -40 156 16 6 171 -46 320 -106 44 -17 81 -29 84 -26 3 2 -6 29 -20 59 l-26 54 -192 77 c-136 55 -195 74 -202 67 -6 -6 -23 -11 -38 -11 -26 0 -27 2 -33 80 -4 44 -5 84 -1 90 10 16 40 12 59 -9z m1906 0 c0 -10 -74 -72 -107 -90 -13 -6 -34 -9 -48 -5 -22 5 -25 12 -25 50 l0 43 83 4 c45 1 85 4 90 5 4 1 7 -2 7 -7z m164 -37 c22 -64 51 -101 191 -239 100 -98 128 -133 156 -190 31 -64 34 -77 34 -160 -1 -80 -4 -97 -33 -157 -20 -42 -50 -82 -80 -110 -51 -45 -117 -86 -127 -77 -3 3 15 28 40 55 25 27 60 78 78 114 29 58 32 74 32 150 -1 119 -28 172 -159 309 -122 128 -186 233 -186 306 0 38 3 45 19 45 14 0 24 -13 35 -46z m-922 31 c2 -3 1 -31 -3 -63 -9 -81 -57 -152 -184 -277 -130 -128 -150 -166 -150 -290 0 -56 5 -103 14 -125 23 -54 71 -132 105 -167 34 -37 23 -42 -33 -14 -117 60 -200 253 -171 398 7 32 19 72 28 88 28 56 113 154 177 205 85 68 122 112 157 187 27 56 44 73 60 58z m288 -22 c0 -16 3 -37 6 -48 4 -15 -4 -27 -27 -44 l-31 -23 -55 53 c-89 88 -89 89 17 89 l90 0 0 -27z m483 -135 c-29 -158 -79 -264 -164 -349 -73 -73 -132 -98 -196 -81 -79 22 -159 88 -219 183 -25 40 -76 185 -88 248 l-6 33 39 -35 c80 -73 82 -73 151 -36 l61 32 32 -31 c18 -18 39 -32 47 -32 8 1 35 18 59 39 l43 38 38 -14 c53 -21 99 -10 157 37 26 21 51 39 54 39 3 1 0 -32 -8 -71z m-730 -92 c11 -78 -9 -120 -105 -223 -65 -70 -97 -130 -98 -180 0 -42 31 -125 63 -166 24 -32 24 -33 6 -56 -17 -21 -20 -21 -40 -7 -34 23 -86 103 -105 159 -20 62 -14 149 17 208 11 23 62 85 112 138 51 54 101 114 112 134 11 20 22 37 26 37 3 0 9 -20 12 -44z m830 2 c10 -18 57 -75 106 -126 120 -126 146 -175 146 -272 0 -87 -28 -157 -88 -225 l-36 -40 -27 26 -27 27 28 36 c32 42 55 113 55 170 0 52 -38 132 -80 171 -18 17 -52 56 -76 89 -44 59 -53 95 -38 154 8 30 16 28 37 -10z m-748 -207 c23 -34 25 -45 19 -92 -7 -61 -34 -128 -68 -173 -12 -17 -25 -39 -29 -49 -13 -35 -39 -32 -74 8 -28 32 -33 46 -33 87 0 63 19 99 91 175 33 34 59 66 59 72 0 19 9 12 35 -28z m665 18 c0 -6 26 -38 58 -72 83 -87 92 -104 92 -162 0 -39 -7 -61 -27 -93 -15 -23 -32 -42 -38 -42 -40 2 -125 141 -146 240 -10 47 -9 53 18 95 27 44 43 56 43 34z m-247 -329 c166 -26 299 -100 427 -237 152 -163 222 -371 190 -564 -28 -169 -90 -288 -216 -415 -60 -61 -88 -81 -175 -122 -143 -68 -182 -77 -329 -77 -151 0 -207 13 -320 72 -208 109 -338 265 -390 469 -60 233 19 499 198 666 67 62 189 142 260 169 66 24 237 59 267 54 11 -2 51 -9 88 -15z"/>
<path d="M2176 3165 c-3 -9 -2 -14 3 -10 5 3 11 -1 14 -7 2 -7 7 -11 10 -8 3 3 0 13 -8 23 -11 16 -13 16 -19 2z"/>
<path d="M2559 2764 c-17 -21 0 -49 31 -49 31 0 48 28 31 49 -8 9 -21 16 -31 16 -10 0 -23 -7 -31 -16z"/>
<path d="M2716 2764 c-22 -21 -20 -41 5 -54 16 -9 25 -8 40 6 24 22 24 41 0 54 -25 13 -27 13 -45 -6z"/>
<path d="M3161 2761 c-14 -26 8 -54 39 -49 31 4 39 37 14 55 -25 18 -42 16 -53 -6z"/>
<path d="M3322 2771 c-8 -4 -12 -19 -10 -32 2 -19 9 -24 33 -24 36 0 47 31 19 52 -21 15 -24 16 -42 4z"/>
<path d="M2897 2333 c-16 -15 -5 -34 33 -58 l40 -26 35 28 c53 42 45 83 -9 48 -21 -14 -26 -14 -52 0 -33 17 -38 18 -47 8z"/>
<path d="M2873 2223 c-26 -5 -39 -33 -21 -45 16 -9 158 -10 212 0 38 7 38 7 18 25 -15 14 -40 19 -103 21 -46 2 -94 1 -106 -1z"/>
<path d="M2936 2125 c7 -16 59 -21 68 -6 7 11 -17 21 -50 21 -17 0 -22 -4 -18 -15z"/>
<path d="M2824 1735 c-174 -42 -353 -181 -433 -334 -57 -111 -74 -179 -75 -296 0 -173 58 -300 195 -430 133 -126 281 -185 464 -185 122 0 181 13 283 62 67 32 100 56 171 126 138 138 191 259 191 436 0 124 -32 226 -103 333 -69 103 -188 204 -303 254 -100 45 -282 61 -390 34z m349 -111 c69 -35 84 -63 42 -82 -19 -9 -34 -8 -66 3 -23 8 -63 15 -90 15 -40 0 -55 -5 -84 -31 -19 -17 -35 -35 -35 -41 0 -5 26 -36 57 -69 l57 -60 -26 -26 -26 -26 -41 32 c-46 36 -121 123 -121 140 0 21 49 89 84 118 20 15 53 33 73 40 47 15 133 9 176 -13z m-427 -225 c29 -18 267 -262 389 -400 94 -106 162 -123 248 -62 59 42 82 92 82 183 0 64 -4 82 -28 122 -32 54 -57 74 -110 89 -62 17 -95 3 -173 -73 l-72 -69 -28 24 -28 24 32 41 c55 69 131 131 175 143 78 21 181 -16 240 -85 10 -12 30 -43 45 -71 24 -44 27 -61 27 -145 0 -78 -4 -104 -23 -145 -60 -131 -209 -200 -319 -148 -21 10 -99 86 -192 187 -271 297 -294 316 -372 316 -99 0 -164 -87 -164 -220 0 -64 4 -82 28 -122 31 -54 73 -87 119 -94 44 -7 112 38 167 111 23 30 43 55 45 55 3 0 19 -18 36 -40 l32 -41 -67 -62 c-115 -107 -193 -129 -291 -83 -62 29 -118 92 -140 159 -26 79 -16 207 21 276 38 70 101 134 145 148 47 16 136 7 176 -18z m489 -231 c13 -15 25 -33 28 -40 2 -7 8 -10 12 -5 5 4 -1 21 -13 37 -27 36 -27 37 -2 50 24 13 70 -8 94 -42 18 -26 21 -71 6 -99 -12 -22 -60 -49 -87 -49 -21 0 -143 133 -143 156 0 8 5 23 12 34 11 18 13 18 41 2 16 -9 39 -29 52 -44z m-502 20 c28 -20 47 -54 47 -85 0 -12 -10 -14 -49 -11 l-48 3 4 -37 c4 -29 2 -38 -16 -47 -42 -23 -91 27 -91 92 0 32 7 46 40 79 43 43 59 44 113 6z m309 -350 c58 -66 59 -67 44 -95 -46 -89 -179 -155 -261 -130 -40 12 -98 62 -93 79 10 28 37 32 88 14 31 -11 60 -16 78 -11 33 8 92 52 92 68 0 7 -18 35 -40 62 -45 56 -46 62 -24 93 16 23 17 23 36 5 11 -10 47 -48 80 -85z"/>
<path d="M2950 466 c-18 -22 -5 -48 22 -44 17 2 23 10 23 28 0 29 -26 38 -45 16z"/>
</g>
</svg>