<svg preserveAspectRatio="xMidYMid meet" viewBox="0 0 594 403" height="403px" width="594px" xmlns="http://www.w3.org/2000/svg" version="1.0">
 <g fill="#4fc2d1">
  <path d="M277 368 c-8.6 -2.4 -16.5 -6 -24.6 -11.2 -3.7 -2.4 -6.8 -4.1 -6.9 -3.8 -0.6 1.1 -14.5 -15.7 -14.4 -17.4 0 -0.5 -0.3 -1.2 -0.8 -1.5 -0.8 -0.6 -2.2 -2.9 -6 -10.1 -1 -1.9 -2.6 -4.1 -3.5 -4.8 -1 -0.7 -1.7 -2.3 -1.7 -3.5 0.1 -1.2 -0.4 -7.6 -1.1 -14.2 -1.3 -13.8 -0.8 -21 2.6 -35 1.7 -6.9 3.2 -10.7 4.9 -12.5 1.4 -1.4 2.7 -3.9 3 -5.5 0.4 -2.6 -0.1 -3.4 -4 -6.2 -2.5 -1.8 -5.4 -3.3 -6.4 -3.3 -3.4 0 -16 -16.7 -14.5 -19.1 0.4 -0.7 0.3 -1 -0.3 -0.6 -0.6 0.4 -2.3 -2.2 -4.1 -6.1 -3.3 -7.5 -4.1 -8.1 -19.7 -14.2 -4.4 -1.8 -9.8 -4 -12 -5 -2.3 -1 -5.2 -2.1 -6.6 -2.5 -1.8 -0.4 -2.9 -1.8 -4 -4.9 -1.5 -4.3 -1.5 -4.4 0.5 -4.1 2.4 0.3 18.7 6.8 28.8 11.3 6.2 2.9 14.7 4.5 14.8 2.9 0 -0.4 -2.4 -4.9 -5.3 -10 -3 -5 -6.7 -12 -8.2 -15.5 -2.5 -5.7 -3.1 -6.3 -6.9 -7.3 -4.8 -1.3 -8 -2.4 -19.6 -7.1 -4.7 -1.9 -10.7 -4.3 -13.3 -5.2 -4 -1.5 -5.1 -2.5 -6.4 -5.7 -2.6 -6.6 -7.5 -7.8 -11.7 -2.8 -2.1 2.4 -2.7 2.7 -3.2 1.5 -0.3 -0.8 -11.9 -7.1 -25.7 -13.9 -26.6 -13 -38.5 -19.8 -50.7 -28.9 -7.7 -5.7 -21 -18.6 -25.5 -24.8 -3.4 -4.6 -10.8 -18.1 -10.2 -18.6 0.2 -0.3 26.2 12.5 57.8 28.4 52.2 26.2 91.2 44.9 115.5 55.4 l9 3.9 3.9 9.7 c6.7 16.8 9.4 22.2 11.2 22.2 1.8 0 9.3 -7.7 9.3 -9.6 0 -0.6 -0.7 -1.5 -1.6 -1.8 -2.1 -0.8 -0.8 -2.6 1.9 -2.6 5.9 0 15.5 -7.7 19.2 -15.5 3.1 -6.5 2.8 -17 -0.6 -19.7 -1.2 -1 -2.7 -1.8 -3.3 -1.8 -0.7 0 -2.3 -1.2 -3.7 -2.6 -1.3 -1.5 -5.4 -4.6 -9.1 -7.1 -15.2 -10.1 -19.9 -18 -20 -33.8 -0.1 -9 3 -23.1 5.4 -24.6 0.5 -0.3 0.9 -0.8 0.8 -1 -0.1 -0.2 0.3 -2.2 0.9 -4.4 0.6 -2.2 1.1 -6.6 1.1 -9.8 0 -7.2 -2.6 -12.7 -8.9 -18.5 l-4.6 -4.2 5 0.6 c6.7 0.8 18.1 6.2 22.8 10.8 2 2 4.7 5.6 6 7.9 2 3.9 2.2 5.3 1.9 19 -0.3 16.1 0.1 17.5 5.8 23.5 3.5 3.6 3.9 3.7 6.6 1.7 2.4 -1.8 4.8 -1.9 9.2 -0.3 3.3 1.2 3.5 1.2 6.6 -2.5 3 -3.6 14.9 -11.7 17.2 -11.7 0.6 0 4.4 -2.9 8.5 -6.5 4 -3.6 8.2 -6.5 9.3 -6.5 2.4 0 11.6 6.9 11.6 8.7 0 0.7 3.3 2.9 7.4 4.9 4.7 2.2 9.5 5.5 12.9 8.8 2.9 2.9 6 5.6 6.8 5.8 0.8 0.3 3.1 -0.1 5.2 -1 3.1 -1.2 4.3 -1.2 6.1 -0.2 3.7 1.9 6.6 0.8 9.9 -3.8 l3.1 -4.3 0.1 -15.7 c0 -17.3 0.7 -19.8 7.6 -27.6 3.7 -4.3 15.7 -10.3 22.4 -11.2 l5 -0.6 -4.7 4.8 c-8.8 9.1 -10 18.8 -4.4 33.2 10.6 27 5.3 44.8 -17.5 59.5 -3 1.9 -6.5 4.6 -7.7 6 -1.3 1.4 -3.6 3.1 -5.2 3.7 -2.5 1 -2.8 1.7 -3.3 7.8 -0.6 7.5 0.7 11.5 6.2 18.9 3.1 4.3 9.4 8.3 13 8.3 2.5 0 3.7 1.8 1.7 2.6 -0.9 0.3 -1.6 1 -1.6 1.4 0 1.7 10.1 11.2 11.4 10.7 1.4 -0.6 5.4 -8.8 10.7 -21.7 3.8 -9.4 4.4 -10.2 10.9 -12.6 2.5 -1 8.2 -3.4 12.8 -5.6 4.5 -2.1 8.4 -3.8 8.7 -3.8 0.4 0 15.6 -7.3 44.5 -21.3 14.2 -6.9 29.7 -14.1 41.5 -19.5 3.3 -1.5 20.9 -10.1 39.1 -19.2 l33.2 -16.5 -2.9 5.6 c-7.2 14.4 -23.9 32.2 -40.3 43 -5 3.4 -21 11.9 -35.6 19 -38.3 18.6 -35.1 16.5 -40.7 25.5 -0.9 1.5 -1 1.2 -0.3 -1.9 0.6 -2.9 0.5 -4 -0.6 -4.4 -0.8 -0.3 -1.4 -0.9 -1.4 -1.5 0 -1.6 -2.8 -3.8 -4.8 -3.8 -2.5 0 -7.2 5.4 -7.2 8.3 0 1.9 -2.3 3.1 -16 8.5 -8.8 3.5 -17.7 6.6 -19.7 6.9 -2.1 0.3 -4.5 0.9 -5.4 1.4 -1.9 1 -17.2 31.5 -16.5 32.8 1 1.6 15.2 -3.2 35.2 -12 5.1 -2.2 9.8 -3.9 10.3 -3.7 0.6 0.2 0.2 2 -0.8 4.4 -2 4.4 -2.3 4.6 -25.1 13.3 -11.9 4.6 -16.8 7.3 -17.6 9.9 -1.5 4.3 -6.5 14.5 -10.3 20.7 -3.1 5.2 -3.8 7.1 -3 8.2 2 2.3 4.9 1.4 9.3 -3 4.8 -4.9 7.2 -6.2 8 -4.4 0.3 0.9 0.5 0.9 0.5 0 0.1 -0.7 -0.5 -1.8 -1.3 -2.5 -1.2 -1.1 -0.8 -2.4 2.6 -8.8 3.4 -6.5 4.5 -7.8 8.1 -9.2 18.1 -7.3 30.2 -11.8 31.7 -11.8 1.7 0 7 -8.7 7 -11.7 0 -0.8 0.3 -1.2 0.8 -1 0.4 0.3 0.8 -0.5 0.8 -1.6 0.1 -1.2 0.9 -4.3 1.7 -6.9 1.3 -3.9 1.3 -4.9 0.2 -6.5 -1.3 -1.7 -1.7 -1.7 -11.2 1.5 -5.4 1.9 -13.8 5 -18.6 6.9 -5.1 2 -9.2 3.2 -9.7 2.7 -0.5 -0.5 -0.1 -2.6 0.9 -4.9 1.6 -3.5 2.5 -4.3 7.4 -5.8 3.1 -1 11.3 -4.2 18.3 -7.2 10.8 -4.5 13 -5.2 14.6 -4.1 1 0.7 3.2 1.1 4.9 0.8 2.4 -0.4 3.4 -1.2 4.5 -3.8 0.8 -1.9 1.8 -3.4 2.3 -3.4 0.8 0 16 -6.2 32.1 -13 2.5 -1.1 11.7 -4.7 20.5 -8.1 8.7 -3.4 19.7 -7.8 24.2 -9.9 4.5 -2.1 9.3 -4.2 10.5 -4.6 1.3 -0.4 5.8 -2.4 10 -4.4 4.2 -2.1 7.9 -3.5 8.2 -3.2 0.3 0.3 0.6 0 0.6 -0.6 0 -0.7 0.5 -1.2 1 -1.2 1.6 0 -0.3 3.3 -7.6 13.1 -15.7 21.2 -28 28.1 -99.1 56 -9.5 3.7 -10.2 4.2 -10.8 7.2 -0.4 1.8 -1.2 3.8 -1.9 4.6 -1.4 1.8 -1.2 1.7 14.4 -3.8 6.3 -2.2 17.6 -5.8 25 -8 16.2 -4.8 34.9 -11.1 48.4 -16.3 5.5 -2.1 10.1 -3.6 10.3 -3.5 0.7 0.8 -6.1 10.1 -12.2 16.5 -8.7 9.2 -13.9 12.6 -25 16.2 -10.8 3.4 -36.5 9.3 -48.5 11 -4.7 0.7 -9.3 1.7 -10.2 2.2 -2.2 1.1 -2.3 4.4 -0.2 5.2 4.1 1.6 26.8 -0.5 43.4 -3.9 11.9 -2.4 12.3 -2.2 5.8 3.9 -11.8 10.8 -21.5 13.4 -44.2 11.7 -12.1 -0.9 -19.7 -2.1 -32.4 -5.1 -8.6 -2 -12.7 -0.7 -15.7 5 -2 3.9 -0.7 4.5 6 2.4 5.4 -1.7 5.5 -1.7 13.2 0.9 8.4 2.8 24.3 5.6 32.6 5.8 2.9 0.1 6.6 0.4 8.2 0.8 l3 0.7 -4.5 2.6 c-12.9 7.7 -21.8 7.6 -44.3 -0.2 -4.9 -1.7 -10.9 -3.3 -13.3 -3.7 -2.5 -0.3 -4.7 -0.9 -4.9 -1.3 -0.3 -0.5 0.5 -0.6 1.7 -0.3 1.3 0.3 2.1 0.3 1.8 0 -0.3 -0.3 -1.8 -0.8 -3.4 -1.1 -2.2 -0.4 -2.7 -0.2 -2.2 1 0.4 1.2 0.2 1.2 -1.4 0.4 -1.6 -0.9 -1.8 -0.8 -1.4 0.5 0.4 0.9 0.1 1.5 -0.7 1.5 -2.3 0 5.4 5 11 7.1 3.1 1.1 8.4 2.8 11.9 3.6 3.4 0.9 6 1.8 5.8 2.1 -0.3 0.2 -4 0.8 -8.3 1.3 -8.6 1 -24.1 -0.1 -38.6 -2.8 l-8.8 -1.6 -4.7 3.3 c-2.6 1.9 -4.8 3.5 -5 3.6 -0.6 0.4 2.6 6 4.1 7.2 1 0.8 19.6 1.2 69.1 1.2 67.1 0.1 67.9 0.1 70 -1.9 2.9 -2.7 7.9 -2.7 11.6 0.1 2.9 2.1 3.1 2.1 6.4 0.5 1.9 -0.9 4.2 -2.8 5.2 -4.2 0.9 -1.3 1.9 -2.3 2.3 -2 1.8 1 -0.8 -9.5 -3.4 -14.3 -2.8 -5.1 -5 -7.6 -10.5 -11.4 -2.4 -1.7 -2.5 -1.8 -0.6 -3.3 1.4 -1 4.2 -1.5 9 -1.5 20.2 0 41.2 7.3 46.6 16.2 1 1.8 1.8 3.3 1.7 3.5 -0.2 0.1 -2.5 -0.4 -5.2 -1.2 -10.6 -3.2 -25.6 -0.9 -28.4 4.3 -2 3.7 -1.3 9.6 1.2 12 2.1 2 4.1 2.3 17.4 3.2 8.2 0.5 16.1 1.4 17.5 1.9 1.4 0.5 2.8 0.7 3.1 0.5 0.3 -0.3 2.2 -0.2 4.3 0.2 3.5 0.6 3.6 0.8 1.5 1.5 -3.3 1.3 -24.3 3.9 -30.9 3.9 -6.7 0 -12.5 1.4 -14.2 3.5 -1.4 1.6 -0.1 8.2 2.6 13.6 2.5 4.9 11 6 24.2 3.1 4.5 -1 8.2 -1.5 8.2 -1.1 0 1.6 -9.7 9.1 -15.4 11.9 -3.6 1.7 -9.8 3.6 -15.1 4.5 -10.8 1.8 -26.7 2.4 -27.2 1 -0.3 -1 4.1 -7.4 10.6 -15.2 3.7 -4.4 3.8 -5.6 1 -12 -3.7 -8.8 -8.5 -11.6 -12.4 -7.3 -1.3 1.4 -3.1 2 -6.2 2 -3.7 0 -4.5 -0.4 -5.5 -2.5 l-1.1 -2.5 -66.9 0 c-56.3 0 -66.8 0.2 -66.8 1.4 0 0.7 1.1 4.7 2.5 8.8 4.8 14.3 3.1 38.6 -3.6 50.7 -10.6 19.3 -21.2 30.1 -38.1 38.7 -13 6.6 -21.7 8.4 -38.7 8.3 -7.9 -0.1 -13.7 -0.7 -18.1 -1.9z m29.8 -6 c10 -1.6 22.6 -6.2 30.4 -11.2 12.9 -8.4 24.5 -23.4 29.4 -38.4 2.6 -8 2.9 -10.3 2.9 -21.9 0 -10.1 -0.4 -14.2 -1.9 -18.5 -7.3 -21.3 -24.1 -39.6 -43.9 -47.8 -4 -1.7 -11.6 -3.8 -16.9 -4.7 -8.8 -1.5 -10.3 -1.5 -18.8 -0.1 -44.3 7.7 -72.6 47.9 -62.4 89.1 4.5 18.7 18.8 35.5 39.7 46.9 11.4 6.3 27 8.7 41.5 6.6z m209.6 -101.6 c1.5 -4 0 -6.8 -3.1 -5.7 -1.4 0.5 -1.8 5.5 -0.6 6.6 1.1 1.2 3.1 0.7 3.7 -0.9z m-146.8 -25.4 c9.5 -7.1 14.6 -17.8 14.5 -30.9 0 -11.7 -7.2 -23.9 -21.2 -36.1 -9.3 -8 -15.3 -15.6 -17.4 -22.1 -1.7 -5 -3.3 -6 -5.5 -3.4 -3.6 4.3 4.6 20.6 16.3 32.5 13.9 14.2 17.8 21.4 17.8 33 0 10 -3.4 17.8 -11.7 27 -3.8 4.2 -3.9 6.8 -0.1 4.9 1.2 -0.6 4.5 -2.9 7.3 -4.9z m-135.2 4.2 c0.3 -0.5 -0.8 -2.2 -2.5 -3.8 -3.4 -3.2 -9.5 -13.5 -11 -18.6 -0.5 -1.8 -1 -6.6 -1 -10.6 0 -11.1 2.7 -16.1 16 -29.6 13.1 -13.3 18.1 -21.2 18.1 -28.4 0 -4.1 -0.3 -5.1 -2 -5.5 -1.7 -0.4 -2.5 0.5 -4.9 5.6 -3.6 8 -7.1 12.3 -15.9 19.4 -18.7 15.3 -24.8 30.6 -19.2 48.5 3.2 10.5 8.7 17.4 17.5 22.1 3.5 1.9 4.2 2 4.9 0.9z m10.1 -7.9 c2.3 -2.7 2.3 -2.8 0.5 -4.8 -3.2 -3.5 -7 -12.8 -7 -17.3 0 -6.3 2.2 -10.5 9.6 -18.5 7.5 -8.2 10.4 -13.4 10.4 -19.2 0 -4.6 -0.9 -8.5 -1.9 -8.5 -0.4 0 -1.8 1.9 -3.1 4.3 -1.3 2.3 -6.3 8.3 -11.2 13.4 -11 11.4 -13.8 16.9 -13.8 26.9 0 5.5 0.5 8.1 2.5 12.1 2.3 4.5 9.9 14.3 11.1 14.3 0.3 0 1.6 -1.2 2.9 -2.7z m113 -1.4 c5.6 -6.3 8.6 -13.7 8.7 -21.3 0 -9.5 -2.9 -15 -14.9 -27.8 -5.5 -5.9 -10.6 -12.1 -11.3 -13.8 -0.7 -1.6 -1.6 -3 -2 -3 -0.4 0 -1.3 2.2 -2 5 -1.1 4.5 -1 5.4 0.9 9.2 1.2 2.4 5 7.5 8.6 11.3 7.1 7.7 9.1 11.1 10.1 17.1 0.7 4.9 -1.7 13.8 -5.1 18.4 -3.1 4.2 -3.1 5.5 -0.3 7.4 3 2.2 3.1 2.2 7.3 -2.5z m-11.4 -12.4 c3.7 -8 2.2 -12.7 -7.5 -23.3 -3.6 -4 -6.6 -7.7 -6.6 -8.2 0 -2.1 -1.6 -0.8 -4.2 3.4 -1.6 2.4 -2.8 5.4 -2.8 6.7 0 7.3 7.5 23.2 12.4 26.5 2.9 1.9 3.2 2 5 0.5 1 -0.9 2.7 -3.4 3.7 -5.6z m-86.8 1.8 c0.8 -1.6 2.9 -5.3 4.6 -8.5 4.4 -7.9 5.3 -17.1 2.2 -22.2 -2.7 -4.3 -3.6 -4.5 -5.5 -0.8 -0.8 1.5 -3.9 5.1 -6.9 8 -8.9 8.6 -10 18.1 -3.2 24.9 2.8 2.8 3.7 3.2 5.4 2.4 1.1 -0.6 2.6 -2.3 3.4 -3.8z m55 -25.4 c5 -5 7.7 -8.7 10.3 -14.3 3.3 -7.1 8.2 -27.1 7 -28.3 -0.3 -0.3 -2.4 1.1 -4.6 3.1 -2.3 2 -5.2 4.1 -6.6 4.6 -3.4 1.3 -8.8 1.2 -11.8 -0.1 -2.3 -1.1 -3 -0.8 -7.1 3 -2.4 2.2 -4.8 4.1 -5.2 4.1 -0.4 0 -2.4 -1.7 -4.5 -3.7 -3.3 -3.2 -4.1 -3.6 -5.6 -2.5 -3.3 2.3 -9.1 5.2 -10.6 5.2 -0.7 0 -3.6 -2 -6.4 -4.5 -2.7 -2.5 -5.3 -4.5 -5.7 -4.5 -1.2 0 0.2 6.9 3.3 16.2 2.8 8.3 9.4 19.1 13.9 22.8 5.1 4.2 9.1 6.5 13.2 7.6 7 1.7 12.1 -0.4 20.4 -8.7z m-31.5 -45.9 l0.3 -6 -6.8 -0.1 c-3.7 0 -8 -0.2 -9.5 -0.4 -5.8 -0.8 -4.1 3.6 4.6 11.7 l5 4.7 3.1 -1.9 c2.7 -1.7 3 -2.4 3.3 -8z m17.3 4.3 l3.1 -2.8 -0.6 -9.5 c-0.4 -5.2 -0.7 -13.9 -0.6 -19.2 l0.1 -9.8 -3.9 0.2 c-2.1 0 -4.4 -0.2 -5 -0.6 -2 -1.2 -1.5 13.8 0.5 17.7 1.4 2.8 1.4 3 0 1.9 -0.8 -0.7 -1.7 -0.9 -2 -0.5 -0.3 0.4 -0.7 5.2 -0.8 10.6 l-0.4 9.7 3 2.5 c1.7 1.3 3.1 2.4 3.3 2.5 0.1 0 1.6 -1.2 3.3 -2.7z m22.5 -2.6 c6.6 -4.8 8.9 -7.3 7.7 -8 -1.5 -1 -18.3 -0.1 -19.4 1 -1.6 1.6 -0.1 9.1 1.9 10.3 2.7 1.5 3.7 1.2 9.8 -3.3z m-38.6 -20.2 c0 -5.3 -0.1 -5.4 -3.2 -6 -1.8 -0.3 -9.6 -0.5 -17.3 -0.3 l-14 0.3 -0.3 5.1 -0.3 5.1 16.3 0.2 c9 0.1 16.5 0.4 16.7 0.7 1.4 1.4 2.1 -0.3 2.1 -5.1z m52 4.2 c8.1 -0.2 8.5 -0.3 8.8 -2.6 0.2 -1.3 0.1 -3.9 -0.3 -5.8 l-0.6 -3.5 -16.6 0.7 c-9.1 0.3 -17 0.8 -17.5 1.1 -1 0.6 -1 7.5 0 9.1 0.8 1.3 6.3 1.9 13.2 1.5 2.5 -0.1 8.3 -0.3 13 -0.5z m-93.2 -14.8 c0.6 -5.3 2.6 -11.8 6 -19.2 2.6 -5.7 3.2 -8.1 2.4 -8.9 -2 -2 -4 0 -7.6 7.4 -4.2 8.8 -6.7 21.5 -4.5 22.9 2.1 1.3 3.4 0.5 3.7 -2.2z m111.5 1.9 c1.4 -1.2 1.5 -2 0.3 -8 -1.2 -6.2 -5.6 -16.7 -8.9 -21.2 -1.1 -1.5 -1.7 -1.7 -3.5 -0.7 l-2.2 1.2 2.7 5.2 c3.1 6.2 8.3 20.4 8.3 22.9 0 2.1 1 2.3 3.3 0.6z m-95.2 -13.7 c1.6 -4.6 3.9 -10.1 5.3 -12.1 3.3 -5 11.7 -12.2 15.8 -13.6 2.5 -0.8 3.4 -1.7 3.6 -3.8 0.3 -2.5 0.1 -2.7 -2 -2.1 -7.7 2.3 -19.6 13.2 -24.1 22.1 -2.5 4.9 -5.7 14.6 -5.7 17.2 0 0.8 0.8 1.2 2.1 1 1.7 -0.2 2.7 -2 5 -8.7z m81.2 8.2 c0.9 -1.5 -2.4 -11.7 -5.4 -17 -5.1 -8.9 -10.5 -14.9 -16.7 -18.7 -3.3 -2 -6.6 -3.6 -7.4 -3.6 -1.1 0 -1.4 3.3 -1.2 19.8 0 10.8 0.2 19.8 0.3 20 0.3 0.6 30 0.1 30.4 -0.5z m-107.9 -4.9 c0 -1.6 -0.4 -3.7 -0.9 -4.7 -0.5 -1.3 -0.3 -1.7 0.6 -1.5 1.9 0.4 8.7 -13.4 7 -14 -3 -1 -8.1 -6.6 -9.8 -10.7 -1 -2.5 -2.4 -4.5 -3.1 -4.5 -2.1 0 -17.2 7.9 -17.2 9.1 0 2.2 3.6 12.9 4.3 12.9 0.4 0 2.4 -1.5 4.3 -3.4 3.5 -3.4 9.4 -6.3 9.4 -4.6 0 0.5 -0.4 1.1 -0.9 1.4 -0.5 0.3 -1.2 1.8 -1.5 3.2 -0.4 1.5 -1.8 4.1 -3.2 5.9 -1.3 1.7 -2.4 3.7 -2.4 4.3 0 1.5 11.2 10.3 12.5 9.9 0.6 -0.2 1 -1.7 0.9 -3.3z m142.5 -5 c1.1 -1 0.8 -1.9 -1.6 -5.6 -4.3 -6.2 -6.5 -10.8 -5.3 -10.8 2.6 0 7.8 3 10.3 5.9 l2.7 3.2 1.1 -2.7 c2.1 -5.6 3.2 -12.5 2.1 -13.6 -1.3 -1.3 -11.5 -5.5 -15.3 -6.3 -2.4 -0.6 -2.8 -0.3 -3.4 2.6 -0.8 3.6 -7.9 11.9 -10.2 11.9 -0.8 0 -1.3 0.6 -1 1.3 5.1 11.9 7.7 18.5 7.7 19.8 0 0.9 0.3 1.9 0.6 2.2 0.6 0.6 8.6 -4.6 12.3 -7.9z m-73.2 -1 c0.9 -2.5 -1.7 -6.2 -4.8 -6.6 -1.5 -0.3 -2.6 -0.1 -2.3 0.4 0.3 0.4 0 0.8 -0.5 0.8 -0.6 0 -1.1 1.3 -1.1 2.9 0 5.5 6.8 7.4 8.7 2.5z m-3.3 -11.8 c-0.3 -0.7 -1.5 -1.2 -2.7 -1.1 -3.2 0.4 -3.4 0.6 -1.2 1.5 3 1.3 4.5 1.2 3.9 -0.4z m2.6 -5.1 c1.8 -2.2 -0.2 -6.5 -3 -6.5 -1.2 0 -1.8 -0.4 -1.5 -1 0.3 -0.5 1.7 -1 3.1 -1 2.4 0 2.5 -0.2 2.2 -5.6 -0.3 -4.9 -0.6 -5.7 -3.1 -7.2 -2.7 -1.6 -2.9 -1.6 -3.8 0.1 -0.6 0.9 -1.7 1.7 -2.4 1.7 -1.2 0 -1.5 1.4 -1.5 6 0 4.6 0.3 6 1.4 6 2 0 2.9 1.7 1.5 2.6 -0.8 0.4 -0.9 0.3 -0.5 -0.4 0.4 -0.7 0.3 -1.2 -0.3 -1.2 -2.1 0 -1.9 1.7 0.5 4.8 2.8 3.5 5.4 4.1 7.4 1.7z m83.6 -12.6 c-0.3 -2.2 -2.4 -8.4 -4.6 -13.9 -4.4 -11 -5.1 -18.2 -2.6 -25.2 1.8 -5.1 -0.2 -5.1 -4.3 -0.1 -6.9 8.3 -8.2 15.5 -6.3 32.3 l0.7 5.4 8 3.2 c4.3 1.8 8.3 3 8.8 2.7 0.5 -0.3 0.6 -2.3 0.3 -4.4z m-165.8 -0.1 c8.9 -2.6 9.2 -3.1 9.2 -16.6 0 -8 -0.4 -10.4 -2.1 -13.6 -2.3 -4.3 -7 -10.6 -8 -10.6 -0.3 0 -0.4 3.5 -0.1 7.8 0.4 6.9 0.1 8.8 -2.7 16.8 -4.9 13.6 -6.1 18.4 -4.8 18.4 0.7 0 4.5 -1 8.5 -2.2z"></path>
  <path d="M295.1 360.1 c-2.1 -1.3 -0.5 -4.1 2.4 -4.1 2.7 0 3.3 1.8 1.3 3.8 -1.4 1.4 -1.9 1.5 -3.7 0.3z"></path>
  <path d="M291 353.1 c-17.6 -1.5 -31.1 -8.5 -44.2 -22.7 -6 -6.5 -9.4 -12.6 -12.4 -22.3 -2.3 -7.3 -2.6 -9.7 -2.2 -18.5 0.6 -12.1 3 -19.9 9.4 -30.3 9.6 -15.5 28.8 -28 46.2 -30.2 7.9 -1 20.8 0 28.5 2.3 13.9 4.1 32.2 19.9 38.9 33.6 5.5 11.3 7.1 18.7 6.4 29.6 -0.9 15.2 -6.3 27.1 -17.5 38.7 -8.5 8.9 -16.4 14.1 -25.9 17.1 -9.4 2.9 -16.1 3.6 -27.2 2.7z m4 -12.2 c8.7 -3.9 15.9 -11.6 14.6 -15.6 -0.7 -2 -14.2 -16.3 -15.4 -16.3 -0.4 0 -1.6 1.3 -2.5 3 l-1.8 2.9 4.7 5.8 4.6 5.7 -3.6 3.3 c-4.1 3.8 -9.2 4.4 -15 1.6 -3.2 -1.5 -3.6 -1.5 -6 0.1 -3.3 2.1 -3.2 2.6 0.2 5.8 6.4 6 12.6 7.2 20.2 3.7z m45.3 -21.7 c5.9 -3.1 9.2 -6.9 12.5 -14.1 3.5 -7.5 3.4 -19.8 -0.1 -27.4 -3.3 -7.3 -7.9 -12.1 -14.3 -15.3 -7.3 -3.6 -15.3 -3.2 -21.5 1.2 -4.2 2.9 -13.9 13.7 -13.9 15.5 0 1.3 4.9 5.4 6.4 5.4 0.7 0 4.4 3.7 8.1 8.3 7.4 8.8 9.2 10 12.7 8.1 8.7 -4.5 9.9 -11.7 2.9 -17.6 -2.9 -2.5 -6.2 -2.9 -9.1 -1.1 -1.6 1 -2.5 0.9 -5 -0.6 -2.9 -1.6 -3.3 -1.7 -4.9 -0.2 -3.2 2.9 -3.2 1.7 0 -2.4 8.3 -10.3 17.6 -12 25.7 -4.6 5.2 4.7 7.8 14.5 6 22.9 -2.2 10.7 -14 18.1 -22.4 14.1 -1.9 -0.9 -8.9 -7.7 -15.8 -15.3 -17.7 -19.5 -31.6 -33.2 -35.3 -34.7 -3.8 -1.7 -10.4 -1.8 -15.5 -0.4 -4.6 1.3 -11.6 8.9 -15.5 16.8 -2.5 5 -2.8 6.8 -2.8 14.8 0.1 7.8 0.5 9.8 2.9 14.7 4.5 9.2 13.1 14.7 22.8 14.7 6.8 -0.1 11.6 -2.7 20.3 -10.8 l6.8 -6.4 -4.2 -4.1 -4.2 -4.2 -2.2 3 c-10.1 13.8 -17.8 16.9 -25.3 10.3 -5.1 -4.5 -7.6 -10.6 -7.6 -18.3 0.1 -14.9 10.5 -24.8 21.7 -20.5 3.3 1.2 11.1 8.5 18.8 17.5 7.5 8.7 25.2 27.3 28.5 29.9 6.5 5.2 15 5.4 23.5 0.8z m-71.5 -19.9 c0.2 -2.3 0.9 -3.3 2 -3.4 3.2 -0.1 7.4 -0.8 7.9 -1.3 0.3 -0.2 0.2 -1.8 -0.2 -3.5 -0.8 -3.8 -7.7 -10.1 -11 -10.1 -3.3 0 -9.2 6.1 -10 10.4 -1.1 5.8 3.1 11.9 7.9 11.4 2.7 -0.3 3.1 -0.7 3.4 -3.5z m34 -29.2 c1.2 -1.1 2.2 -2.2 2.2 -2.6 0 -0.4 -2.2 -3.2 -5 -6.4 -2.7 -3.2 -5 -6.2 -5 -6.8 0 -0.6 1.6 -2.5 3.5 -4.2 4.1 -3.5 8.3 -4 15 -1.6 5.5 2 7.9 1.9 10.1 -0.6 1.8 -2 1.8 -2.1 -0.6 -4 -7.2 -5.8 -18.5 -7.7 -25.6 -4.3 -4.3 2 -10.3 8.1 -12.9 12.9 l-1.9 3.7 8.1 7.9 c4.4 4.3 8.4 7.9 8.9 7.9 0.5 -0.1 1.9 -0.9 3.2 -1.9z"></path>
  <path d="M285 183.6 c0 -0.8 1.5 -1.8 3.3 -2.2 4.2 -1 16.6 -0.5 18.9 0.7 4 2.2 1.4 2.9 -10.2 2.9 -9.7 0 -12 -0.3 -12 -1.4z"></path>
  <path d="M292.8 174.9 c-6.4 -3.3 -3.9 -6.7 2.7 -3.7 1.9 0.9 2.8 0.9 3.7 0 1.4 -1.4 4.8 -1.6 4.8 -0.3 0 0.9 -6.2 6.2 -7.1 6.1 -0.2 -0.1 -2.1 -1 -4.1 -2.1z"></path>
  <path d="M256.1 130.7 c-0.6 -0.8 -0.9 -2.1 -0.5 -3 0.7 -1.9 3.1 -2.9 3.9 -1.6 0.4 0.5 1.1 0.7 1.6 0.3 0.7 -0.4 0.9 0.5 0.7 2.2 -0.3 3.3 -3.7 4.5 -5.7 2.1z"></path>
  <path d="M271.4 130.5 c-1 -2.5 0.4 -4.5 3.1 -4.5 3 0 4.3 2.4 2.5 4.5 -1.6 1.9 -4.9 1.9 -5.6 0z"></path>
  <path d="M317.2 130.8 c-0.7 -0.7 -1.2 -2 -1.2 -3 0 -2.8 5.6 -2.5 6.5 0.3 1.1 3.3 -2.8 5.2 -5.3 2.7z"></path>
  <path d="M332 130.5 c-1.8 -2.1 -0.5 -4.5 2.5 -4.5 1.4 0 2.8 0.7 3.1 1.5 0.7 1.7 -1.2 4.5 -3.1 4.5 -0.7 0 -1.8 -0.7 -2.5 -1.5z"></path>
  <path d="M165.6 243.2 c-1.5 -0.7 0.8 -1.5 9 -3.6 12.1 -3 17.7 -6.3 17.2 -9.9 -0.5 -3.3 -5.3 -2.6 -23 3.4 -12.9 4.4 -16.5 5.3 -22.9 5.3 -6.7 0.1 -8.5 -0.3 -14.8 -3.4 -3.9 -1.8 -7 -3.9 -6.8 -4.5 0.2 -0.6 5.2 -1.3 11.8 -1.6 11.4 -0.6 21.4 -2.5 25.9 -4.9 1.3 -0.7 6.3 -1.5 11.2 -1.8 9.7 -0.5 10.7 -1.4 6.3 -5.7 -2.8 -2.9 -6 -3.1 -13.1 -1.1 -15.1 4.5 -33.4 6.2 -48.8 4.7 -12.3 -1.2 -16.4 -3 -24.8 -10.9 -5.2 -4.9 -6.1 -6.8 -2.5 -5.8 8 2.3 24.7 4.5 38.9 5.1 8.6 0.3 11 0.1 12.2 -1.1 1.8 -1.7 1.1 -4.1 -1.2 -4.8 -1 -0.3 -5.5 -1 -10.2 -1.6 -18 -2.3 -45.7 -9.3 -54.3 -13.6 -8.5 -4.4 -28.6 -25.8 -26.3 -28.1 0.3 -0.4 3 0.3 5.9 1.5 4.8 2 12.7 4.7 66.2 22.7 17.5 5.9 19 6.2 19.3 4.5 0.7 -4.2 -2.1 -7.3 -8.8 -9.9 -51 -19.2 -74.8 -31 -89.8 -44.6 -5.4 -4.8 -18.9 -24.1 -17.8 -25.3 0.4 -0.3 2.1 0.1 3.9 1 5.7 3 20.9 9.9 30.7 14 5.2 2.2 13.3 5.8 18 8 12.4 5.8 45 19.5 48.3 20.3 2.7 0.7 2.8 0.6 2.2 -2.1 l-0.6 -2.9 1.5 2.5 c0.8 1.4 1.8 2.3 2.3 2 0.4 -0.3 1 1.5 1.3 4 0.4 4 0.8 4.5 3.3 4.8 1.6 0.2 3.4 -0.2 4.2 -0.8 1 -0.8 5.7 0.6 20.1 6.3 17.8 7.1 18.8 7.7 20.7 11.2 1.1 2.2 1.5 4.1 1 4.6 -0.5 0.5 -6.3 -1.1 -13.9 -4 -19 -7.2 -22.4 -8.2 -24.5 -7.6 -2.8 0.9 -2.4 3.2 3.1 15.6 5.9 13.2 6.1 13.5 10 14.3 1.7 0.3 9.7 3.3 17.9 6.6 l14.8 6.1 2.7 5.2 c1.4 2.9 2.6 5.6 2.6 6.1 0 1.3 11.1 15.5 12.8 16.5 2.8 1.6 -8.7 3.3 -24.3 3.7 -8.2 0.2 -15.9 0 -16.9 -0.4z"></path>
 </g>
</svg>